<?xml version="1.0" encoding="utf-8"?><!-- Uploaded to: SVG Repo, www.svgrepo.com, Generator: SVG Repo Mixer Tools -->
<svg width="800px" height="800px" viewBox="0 0 400 400" fill="none" xmlns="http://www.w3.org/2000/svg">
<path d="M208.966 110.117C254.405 154.438 251.905 240.684 230.919 288.101C201.051 355.593 209.978 250.359 184.602 277.117C177.704 284.391 181.81 317.719 156.516 320.269C138.085 322.126 154.096 266.606 141.635 277.117C127.283 289.224 121.293 331.099 103.61 320.269C96.98 288.749 95.6539 205.826 103.61 164.619" stroke="#000000" stroke-opacity="0.9" stroke-width="16" stroke-linecap="round" stroke-linejoin="round"/>
<path d="M334.001 205.901C300.792 236.16 270.173 269.031 239.891 302.247C231.256 311.719 217.546 319.675 207.086 324.435" stroke="#000000" stroke-opacity="0.9" stroke-width="16" stroke-linecap="round" stroke-linejoin="round"/>
<path d="M240.001 310.082C261.705 300.029 259.1 324.324 252.155 325.999C233.056 330.607 236.719 314.627 238.123 312.595" stroke="#000000" stroke-opacity="0.9" stroke-width="16" stroke-linecap="round" stroke-linejoin="round"/>
<path d="M318.739 227.487C333.322 228.815 333.932 239.822 328.721 245.562C322.396 252.532 303.881 248.558 312.768 230.427" stroke="#000000" stroke-opacity="0.9" stroke-width="16" stroke-linecap="round" stroke-linejoin="round"/>
<path d="M67 154.417C74.2958 151.934 94.2222 144.012 102.587 140.456M102.587 140.456C132.714 127.648 168.181 109.352 197.507 96.1835C186.549 83.4764 160.167 66.0223 132.221 75.9106C98.42 87.8702 101.97 124.204 102.587 140.456Z" stroke="#000000" stroke-opacity="0.9" stroke-width="16" stroke-linecap="round" stroke-linejoin="round"/>
<path d="M212.18 168.071C211.362 164.294 211.429 160.869 210.359 156.308" stroke="#000000" stroke-opacity="0.9" stroke-width="16" stroke-linecap="round" stroke-linejoin="round"/>
<path d="M189.816 170.532C190.383 167.512 189.063 162.444 188.656 159.594" stroke="#000000" stroke-opacity="0.9" stroke-width="16" stroke-linecap="round" stroke-linejoin="round"/>
</svg>